<svg width="52" height="52" viewBox="0 0 52 52" fill="none" xmlns="http://www.w3.org/2000/svg">
<rect opacity="0.1" width="52" height="52" rx="26" fill="#EE5A2F"/>
<path d="M32.3624 27.4C33.4121 27.4 34.3357 26.826 34.8115 25.958L39.8217 16.872C40.3395 15.948 39.6677 14.8 38.6041 14.8H17.8918L16.5763 12H12V14.8H14.799L19.8371 25.426L17.9478 28.842C16.9262 30.718 18.2697 33 20.3969 33H37.1906V30.2H20.3969L21.9363 27.4H32.3624ZM19.2213 17.6H36.225L32.3624 24.6H22.5381L19.2213 17.6ZM20.3969 34.4C18.8575 34.4 17.6119 35.66 17.6119 37.2C17.6119 38.74 18.8575 40 20.3969 40C21.9363 40 23.1958 38.74 23.1958 37.2C23.1958 35.66 21.9363 34.4 20.3969 34.4ZM34.3917 34.4C32.8523 34.4 31.6067 35.66 31.6067 37.2C31.6067 38.74 32.8523 40 34.3917 40C35.9311 40 37.1906 38.74 37.1906 37.2C37.1906 35.66 35.9311 34.4 34.3917 34.4Z" fill="#EE5A2F"/>
</svg>
