<svg width="52" height="52" viewBox="0 0 52 52" fill="none" xmlns="http://www.w3.org/2000/svg">
<rect opacity="0.1" width="52" height="52" rx="26" fill="#EE5A2F"/>
<path d="M26 11C17.72 11 11 17.72 11 26C11 34.28 17.72 41 26 41C34.28 41 41 34.28 41 26C41 17.72 34.28 11 26 11ZM26 38C19.385 38 14 32.615 14 26C14 19.385 19.385 14 26 14C32.615 14 38 19.385 38 26C38 32.615 32.615 38 26 38ZM26.465 24.71C23.81 24.035 22.955 23.3 22.955 22.205C22.955 20.945 24.14 20.06 26.105 20.06C28.175 20.06 28.955 21.05 29.015 22.52H31.58C31.505 20.51 30.275 18.665 27.845 18.065V15.5H24.35V18.035C22.085 18.515 20.27 19.985 20.27 22.25C20.27 24.935 22.505 26.285 25.76 27.065C28.685 27.755 29.27 28.79 29.27 29.87C29.27 30.665 28.685 31.955 26.12 31.955C23.72 31.955 22.775 30.875 22.64 29.495H20.06C20.21 32.045 22.1 33.485 24.35 33.95V36.5H27.86V33.995C30.14 33.56 31.94 32.255 31.955 29.84C31.94 26.54 29.105 25.4 26.465 24.71Z" fill="#EE5A2F"/>
</svg>
