<svg width="52" height="52" viewBox="0 0 52 52" fill="none" xmlns="http://www.w3.org/2000/svg">
<rect opacity="0.1" width="52" height="52" rx="26" fill="#EE5A2F"/>
<path d="M40.8516 20.835L38.7359 12H33.1091H30.0931H27.4973H24.4963H21.9155H18.8845H13.2577L11.142 20.835C10.7819 22.365 11.112 23.925 12.0723 25.155C12.1923 25.32 12.3574 25.44 12.4924 25.59V39H39.5011V25.59C39.6362 25.455 39.8012 25.32 39.9213 25.17C40.8816 23.94 41.2267 22.365 40.8516 20.835ZM18.5244 15L17.6541 22.29C17.5341 23.265 16.7538 24 15.8385 24C15.1033 24 14.6381 23.565 14.4431 23.295C14.0529 22.8 13.9179 22.155 14.0679 21.54L15.6284 15H18.5244ZM36.3651 15L37.9406 21.54C38.0907 22.17 37.9556 22.8 37.5655 23.295C37.3554 23.565 36.9053 24 36.1551 24C35.2398 24 34.4445 23.265 34.3395 22.29L33.4692 15H36.3651ZM31.2635 21.78C31.3385 22.365 31.1584 22.95 30.7683 23.385C30.4232 23.775 29.943 24 29.3279 24C28.3225 24 27.4973 23.115 27.4973 22.035V15H30.4382L31.2635 21.78ZM24.4963 22.035C24.4963 23.115 23.671 24 22.5607 24C22.0505 24 21.5854 23.775 21.2252 23.385C20.8501 22.95 20.6701 22.365 20.7301 21.78L21.5553 15H24.4963V22.035ZM15.4934 36V26.955C15.6134 26.97 15.7185 27 15.8385 27C17.1439 27 18.3293 26.46 19.1996 25.575C20.0999 26.475 21.3003 27 22.6657 27C23.9711 27 25.1415 26.46 26.0118 25.605C26.8971 26.46 28.0975 27 29.4479 27C30.7083 27 31.9087 26.475 32.809 25.575C33.6793 26.46 34.8646 27 36.1701 27C36.2901 27 36.3951 26.97 36.5152 26.955V36H15.4934Z" fill="#EE5A2F"/>
</svg>
