<svg width="60" height="60" viewBox="0 0 60 60" fill="none" xmlns="http://www.w3.org/2000/svg">
<circle cx="30" cy="30" r="30" fill="#4B5563"/>
<path d="M15.875 25C13.1937 25 11 27.25 11 30C11 32.75 13.1937 35 15.875 35C18.5563 35 20.75 32.75 20.75 30C20.75 27.25 18.5563 25 15.875 25ZM45.125 25C42.4437 25 40.25 27.25 40.25 30C40.25 32.75 42.4437 35 45.125 35C47.8063 35 50 32.75 50 30C50 27.25 47.8063 25 45.125 25ZM30.5 25C27.8187 25 25.625 27.25 25.625 30C25.625 32.75 27.8187 35 30.5 35C33.1813 35 35.375 32.75 35.375 30C35.375 27.25 33.1813 25 30.5 25Z" fill="#F9FAFB"/>
</svg>
